mtllib model_1.mtl
o model_1
v -5.204740047454834 -4.057238578796387 8.918540000915527 
v -4.057238578796387 -5.204740047454834 8.918540000915527 
v -5.204740047454834 -4.057238578796387 9.310084342956543 
v -4.057238578796387 -5.204740047454834 9.310084342956543 
v -4.057238578796387 -5.204740047454834 9.310084342956543 
v -4.057238578796387 -5.204740047454834 8.918540000915527 
v 4.057237148284912 -5.204740047454834 9.310084342956543 
v 4.057237148284912 -5.204740047454834 8.918540000915527 
v -5.204740047454834 4.057237148284912 9.310084342956543 
v -5.204740047454834 4.057237148284912 8.918540000915527 
v -5.204740047454834 -4.057238578796387 9.310084342956543 
v -5.204740047454834 -4.057238578796387 8.918540000915527 
v 5.204738616943359 -4.057238578796387 8.918540000915527 
v 4.057237148284912 -5.204740047454834 8.918540000915527 
v 5.204738616943359 4.057237148284912 8.918540000915527 
v 0.04098159819841385 0.04098159819841385 8.918540000915527 
v 4.057237148284912 5.204738616943359 8.918540000915527 
v -4.057238578796387 5.204738616943359 8.918540000915527 
v -4.057238578796387 -5.204740047454834 8.918540000915527 
v -5.204740047454834 -4.057238578796387 8.918540000915527 
v -5.204740047454834 4.057237148284912 8.918540000915527 
v 5.204738616943359 -4.057238578796387 8.918540000915527 
v 5.204738616943359 -4.057238578796387 9.310084342956543 
v 4.057237148284912 -5.204740047454834 8.918540000915527 
v 4.057237148284912 -5.204740047454834 9.310084342956543 
v -4.057238578796387 5.204738616943359 9.310084342956543 
v -4.057238578796387 5.204738616943359 8.918540000915527 
v -5.204740047454834 4.057237148284912 9.310084342956543 
v -5.204740047454834 4.057237148284912 8.918540000915527 
v 5.204738616943359 4.057237148284912 9.310084342956543 
v 4.057237148284912 5.204738616943359 9.310084342956543 
v 5.204738616943359 -4.057238578796387 9.310084342956543 
v 0.04098159819841385 0.04098159819841385 9.310084342956543 
v 4.057237148284912 -5.204740047454834 9.310084342956543 
v -4.057238578796387 -5.204740047454834 9.310084342956543 
v -4.057238578796387 5.204738616943359 9.310084342956543 
v -5.204740047454834 4.057237148284912 9.310084342956543 
v -5.204740047454834 -4.057238578796387 9.310084342956543 
v -4.057238578796387 5.204738616943359 8.918540000915527 
v -4.057238578796387 5.204738616943359 9.310084342956543 
v 4.057237148284912 5.204738616943359 8.918540000915527 
v 4.057237148284912 5.204738616943359 9.310084342956543 
v 4.057237148284912 5.204738616943359 9.310084342956543 
v 5.204738616943359 4.057237148284912 9.310084342956543 
v 4.057237148284912 5.204738616943359 8.918540000915527 
v 5.204738616943359 4.057237148284912 8.918540000915527 
v 5.204738616943359 4.057237148284912 8.918540000915527 
v 5.204738616943359 4.057237148284912 9.310084342956543 
v 5.204738616943359 -4.057238578796387 8.918540000915527 
v 5.204738616943359 -4.057238578796387 9.310084342956543 
vn -0.7071051001548767 -0.7071051001548767 0.002184694167226553 
vn -0.7071051001548767 -0.7071051001548767 0.002184694167226553 
vn -0.7071051001548767 -0.7071051001548767 0.002184694167226553 
vn -0.7071051001548767 -0.7071051001548767 0.002184694167226553 
vn 3.097898456858039e-13 -0.999997615814209 0.002184694167226553 
vn 3.097898456858039e-13 -0.999997615814209 0.002184694167226553 
vn 3.097898456858039e-13 -0.999997615814209 0.002184694167226553 
vn 3.097898456858039e-13 -0.999997615814209 0.002184694167226553 
vn -0.999997615814209 -2.0682260971124217e-13 0.002184694167226553 
vn -0.999997615814209 -2.0682260971124217e-13 0.002184694167226553 
vn -0.999997615814209 -2.0682260971124217e-13 0.002184694167226553 
vn -0.999997615814209 -2.0682260971124217e-13 0.002184694167226553 
vn -2.0682311115474694e-13 0 -1 
vn -2.0682311115474694e-13 0 -1 
vn -2.0682311115474694e-13 0 -1 
vn -2.0682311115474694e-13 0 -1 
vn -2.0682311115474694e-13 0 -1 
vn -2.0682311115474694e-13 0 -1 
vn -2.0682311115474694e-13 0 -1 
vn -2.0682311115474694e-13 0 -1 
vn -2.0682311115474694e-13 0 -1 
vn 0.7071051001548767 -0.7071051001548767 0.002184694167226553 
vn 0.7071051001548767 -0.7071051001548767 0.002184694167226553 
vn 0.7071051001548767 -0.7071051001548767 0.002184694167226553 
vn 0.7071051001548767 -0.7071051001548767 0.002184694167226553 
vn -0.7071051001548767 0.7071051001548767 0.002184694167226553 
vn -0.7071051001548767 0.7071051001548767 0.002184694167226553 
vn -0.7071051001548767 0.7071051001548767 0.002184694167226553 
vn -0.7071051001548767 0.7071051001548767 0.002184694167226553 
vn 0 0 1 
vn 0 0 1 
vn 0 0 1 
vn 0 0 1 
vn 0 0 1 
vn 0 0 1 
vn 0 0 1 
vn 0 0 1 
vn 0 0 1 
vn -1.0341130485562108e-13 0.999997615814209 0.002184694167226553 
vn -1.0341130485562108e-13 0.999997615814209 0.002184694167226553 
vn -1.0341130485562108e-13 0.999997615814209 0.002184694167226553 
vn -1.0341130485562108e-13 0.999997615814209 0.002184694167226553 
vn 0.7071051001548767 0.7071051001548767 0.002184694167226553 
vn 0.7071051001548767 0.7071051001548767 0.002184694167226553 
vn 0.7071051001548767 0.7071051001548767 0.002184694167226553 
vn 0.7071051001548767 0.7071051001548767 0.002184694167226553 
vn 0.999997615814209 0 0.002184694167226553 
vn 0.999997615814209 0 0.002184694167226553 
vn 0.999997615814209 0 0.002184694167226553 
vn 0.999997615814209 0 0.002184694167226553 
vt 0.02149300090968609 0.35700711607933044 
vt 0.026270566508173943 0.2701854705810547 
vt 0.04339988902211189 0.3495449423789978 
vt 0.04409904405474663 0.27764761447906494 
vt 0.04409904405474663 0.27764761447906494 
vt 0.026270566508173943 0.2701854705810547 
vt 0.30197107791900635 0.0312778614461422 
vt 0.2940473258495331 0.011970999650657177 
vt 0.2960282564163208 0.613918662071228 
vt 0.28892016410827637 0.6344099640846252 
vt 0.04339988902211189 0.3495449423789978 
vt 0.02149300090968609 0.35700711607933044 
vt 0.7187845706939697 0.9821704030036926 
vt 0.6452566981315613 0.9821704030036926 
vt 0.975957453250885 0.7250219583511353 
vt 0.6820788979530334 0.6883033514022827 
vt 0.975957453250885 0.6514663696289062 
vt 0.7187845706939697 0.3943179249763489 
vt 0.3880837857723236 0.7250219583511353 
vt 0.3880837857723236 0.6514663696289062 
vt 0.6452566981315613 0.3943179249763489 
vt 0.38097572326660156 0.011970999650657177 
vt 0.37386763095855713 0.03234388306736946 
vt 0.2940473258495331 0.011970999650657177 
vt 0.30197107791900635 0.0312778614461422 
vt 0.36804133653640747 0.6151031255722046 
vt 0.37596508860588074 0.6344099640846252 
vt 0.2960282564163208 0.613918662071228 
vt 0.28892016410827637 0.6344099640846252 
vt 0.6266125440597534 0.2967175841331482 
vt 0.6259133815765381 0.36861491203308105 
vt 0.37386763095855713 0.03234388306736946 
vt 0.33494794368743896 0.323131263256073 
vt 0.30197107791900635 0.0312778614461422 
vt 0.04409904405474663 0.27764761447906494 
vt 0.36804133653640747 0.6151031255722046 
vt 0.2960282564163208 0.613918662071228 
vt 0.04339988902211189 0.3495449423789978 
vt 0.37596508860588074 0.6344099640846252 
vt 0.36804133653640747 0.6151031255722046 
vt 0.6437418460845947 0.3761955201625824 
vt 0.6259133815765381 0.36861491203308105 
vt 0.6259133815765381 0.36861491203308105 
vt 0.6266125440597534 0.2967175841331482 
vt 0.6437418460845947 0.3761955201625824 
vt 0.6485193967819214 0.28925544023513794 
vt 0.6485193967819214 0.28925544023513794 
vt 0.6266125440597534 0.2967175841331482 
vt 0.38097572326660156 0.011970999650657177 
vt 0.37386763095855713 0.03234388306736946 
s on 
f 1/1/1 2/2/2 3/3/3 
f 2/2/2 4/4/4 3/3/3 
f 3/3/3 4/4/4 4/4/4 
f 4/4/4 5/5/5 4/4/4 
f 4/4/4 5/5/5 5/5/5 
f 5/5/5 6/6/6 5/5/5 
f 5/5/5 6/6/6 7/7/7 
f 6/6/6 8/8/8 7/7/7 
f 7/7/7 8/8/8 8/8/8 
f 8/8/8 9/9/9 8/8/8 
f 8/8/8 9/9/9 9/9/9 
f 9/9/9 10/10/10 9/9/9 
f 9/9/9 10/10/10 11/11/11 
f 10/10/10 12/12/12 11/11/11 
f 11/11/11 12/12/12 12/12/12 
f 12/12/12 13/13/13 12/12/12 
f 12/12/12 13/13/13 13/13/13 
f 13/13/13 14/14/14 13/13/13 
f 13/13/13 14/14/14 15/15/15 
f 14/14/14 16/16/16 15/15/15 
f 15/15/15 16/16/16 17/17/17 
f 16/16/16 18/18/18 17/17/17 
f 17/17/17 18/18/18 18/18/18 
f 18/18/18 14/14/14 18/18/18 
f 18/18/18 14/14/14 14/14/14 
f 14/14/14 19/19/19 14/14/14 
f 14/14/14 19/19/19 16/16/16 
f 19/19/19 20/20/20 16/16/16 
f 16/16/16 20/20/20 18/18/18 
f 20/20/20 21/21/21 18/18/18 
f 18/18/18 21/21/21 21/21/21 
f 21/21/21 22/22/22 21/21/21 
f 21/21/21 22/22/22 22/22/22 
f 22/22/22 23/23/23 22/22/22 
f 22/22/22 23/23/23 24/24/24 
f 23/23/23 25/25/25 24/24/24 
f 24/24/24 25/25/25 25/25/25 
f 25/25/25 26/26/26 25/25/25 
f 25/25/25 26/26/26 26/26/26 
f 26/26/26 27/27/27 26/26/26 
f 26/26/26 27/27/27 28/28/28 
f 27/27/27 29/29/29 28/28/28 
f 28/28/28 29/29/29 29/29/29 
f 29/29/29 30/30/30 29/29/29 
f 29/29/29 30/30/30 30/30/30 
f 30/30/30 31/31/31 30/30/30 
f 30/30/30 31/31/31 32/32/32 
f 31/31/31 33/33/33 32/32/32 
f 32/32/32 33/33/33 34/34/34 
f 33/33/33 35/35/35 34/34/34 
f 34/34/34 35/35/35 35/35/35 
f 35/35/35 31/31/31 35/35/35 
f 35/35/35 31/31/31 31/31/31 
f 31/31/31 36/36/36 31/31/31 
f 31/31/31 36/36/36 33/33/33 
f 36/36/36 37/37/37 33/33/33 
f 33/33/33 37/37/37 35/35/35 
f 37/37/37 38/38/38 35/35/35 
f 35/35/35 38/38/38 38/38/38 
f 38/38/38 39/39/39 38/38/38 
f 38/38/38 39/39/39 39/39/39 
f 39/39/39 40/40/40 39/39/39 
f 39/39/39 40/40/40 41/41/41 
f 40/40/40 42/42/42 41/41/41 
f 41/41/41 42/42/42 42/42/42 
f 42/42/42 43/43/43 42/42/42 
f 42/42/42 43/43/43 43/43/43 
f 43/43/43 44/44/44 43/43/43 
f 43/43/43 44/44/44 45/45/45 
f 44/44/44 46/46/46 45/45/45 
f 45/45/45 46/46/46 46/46/46 
f 46/46/46 47/47/47 46/46/46 
f 46/46/46 47/47/47 47/47/47 
f 47/47/47 48/48/48 47/47/47 
f 47/47/47 48/48/48 49/49/49 
f 48/48/48 50/50/50 49/49/49 

